<?xml version="1.0" encoding="UTF-8" standalone="no"?>
<svg
   width="3072"
   height="3072"
   viewBox="0 0 3072 3072"
   fill="none"
   version="1.1"
   id="svg2"
   sodipodi:docname="logo.svg"
   inkscape:version="1.3 (0e150ed6c4, 2023-07-21)"
   xmlns:inkscape="http://www.inkscape.org/namespaces/inkscape"
   xmlns:sodipodi="http://sodipodi.sourceforge.net/DTD/sodipodi-0.dtd"
   xmlns="http://www.w3.org/2000/svg"
   xmlns:svg="http://www.w3.org/2000/svg">
  <sodipodi:namedview
     id="namedview2"
     pagecolor="#ffffff"
     bordercolor="#000000"
     borderopacity="0.25"
     inkscape:showpageshadow="2"
     inkscape:pageopacity="0.0"
     inkscape:pagecheckerboard="0"
     inkscape:deskcolor="#d1d1d1"
     showgrid="false"
     inkscape:zoom="0.26985677"
     inkscape:cx="1869.5103"
     inkscape:cy="742.98673"
     inkscape:window-width="1916"
     inkscape:window-height="1033"
     inkscape:window-x="0"
     inkscape:window-y="23"
     inkscape:window-maximized="1"
     inkscape:current-layer="svg2" />
  <g
     clip-path="url(#clip0_0_1)"
     id="g2"
     style="display:inline">
    <circle
       cx="1536"
       cy="1536"
       r="1195"
       stroke="#ffffff"
       stroke-width="170"
       id="circle1" />
    <path
       d="m 1904.2,790.5 c -29.62,1.006 -58.53,9.281 -84.19,24.096 -25.66,14.815 -47.28,35.714 -62.96,60.857 l -218.45,387.677 -157.36,262.56 -218.39,387.78 c -15.68,25.14 -37.3,46.04 -62.96,60.86 -25.66,14.81 -54.57,23.09 -84.18,24.09 l -352.199,-1.21 c -28.922,0.02 -57.369,-7.35 -82.653,-21.39 -25.285,-14.04 -46.57,-34.3 -61.845,-58.86 L 342.209,1610.73 c -15.076,-25.03 -22.814,-53.8 -22.332,-83.01 0.482,-29.22 9.165,-57.71 25.058,-82.24 l 178.714,-299.33 c 15.631,-25.18 37.243,-46.11 62.912,-60.94 25.67,-14.82 54.604,-23.07 84.23,-24.01 l 348.579,-5.06 c 28.91,-0.01 57.36,7.36 82.64,21.4 25.28,14.04 46.56,34.3 61.83,58.86 l 113.17,196.03 148.35,-265.44 -109.69,-189.996 c -13.93,-25.531 -34.72,-46.651 -60.04,-60.964 -25.31,-14.314 -54.13,-21.249 -83.18,-20.019 l -647.833,-1.916 c -29.626,0.946 -58.559,9.195 -84.229,24.016 -25.67,14.82 -47.281,35.753 -62.913,60.937 L 49.842,1444.15 c -18.9926,23.64 -30.0636,52.67 -31.6447,82.95 -1.5811,30.29 6.4079,60.31 22.8353,85.8 l 329.1324,570.08 c 14.19,25.4 35.212,46.33 60.685,60.39 25.472,14.07 54.377,20.72 83.436,19.2 l 653.624,-0.52 c 29.61,-1.01 58.52,-9.28 84.18,-24.1 25.66,-14.81 47.29,-35.71 62.96,-60.86 l 221.95,-381.61 148.98,-265.8 221.17,-380.33 c 15.68,-25.15 37.3,-46.05 62.96,-60.86 25.66,-14.82 54.57,-23.09 84.18,-24.1 l 348.58,-5.06 c 28.91,0 57.34,7.38 82.61,21.43 25.26,14.05 46.53,34.32 61.77,58.88 l 173.45,300.42 c 15.07,25.01 22.8,53.75 22.32,82.94 -0.47,29.19 -9.15,57.66 -25.02,82.15 l -175.19,305.38 c -15.64,25.18 -37.25,46.11 -62.92,60.94 -25.67,14.82 -54.6,23.07 -84.23,24.01 l -348.57,5.06 c -28.9,0.04 -57.33,-7.3 -82.6,-21.32 -25.28,-14.02 -46.55,-34.25 -61.82,-58.79 l -113.68,-196.89 -145.85,255.77 113.19,196.05 c 14.12,25.58 35.14,46.67 60.68,60.87 25.53,14.2 54.53,20.94 83.71,19.44 l 653.22,-1.23 c 29.64,-0.96 58.59,-9.22 84.28,-24.05 25.69,-14.83 47.32,-35.77 62.97,-60.96 l 327.62,-565.13 c 14.3,-25.01 22.01,-53.23 22.4,-82.04 0.4,-28.8 -6.53,-57.23 -20.13,-82.62 L 2701.8,869.324 c -14.13,-25.563 -35.17,-46.634 -60.71,-60.805 -25.54,-14.172 -54.55,-20.871 -83.72,-19.333 z"
       fill="#b91c1c"
       id="path1" />
    <path
       fill-rule="evenodd"
       clip-rule="evenodd"
       d="m 1536,1797.2 v -529.73 l 2.6,-4.34 218.45,-387.677 c 15.68,-25.143 37.3,-46.042 62.96,-60.857 25.66,-14.815 54.57,-23.09 84.19,-24.096 l 653.17,-1.314 c 29.17,-1.538 58.18,5.161 83.72,19.333 25.54,14.171 46.58,35.242 60.71,60.805 l 329.28,570.316 c 13.6,25.39 20.53,53.82 20.13,82.62 -0.39,28.81 -8.1,57.03 -22.4,82.04 l -327.62,565.13 c -15.65,25.19 -37.28,46.13 -62.97,60.96 -25.69,14.83 -54.64,23.09 -84.28,24.05 l -653.22,1.23 c -29.18,1.5 -58.18,-5.24 -83.71,-19.44 -25.54,-14.2 -46.56,-35.29 -60.68,-60.87 l -113.19,-196.05 145.85,-255.77 113.68,196.89 c 15.27,24.54 36.54,44.77 61.82,58.79 25.27,14.02 53.7,21.36 82.6,21.32 l 348.57,-5.06 c 29.63,-0.94 58.56,-9.19 84.23,-24.01 25.67,-14.83 47.28,-35.76 62.92,-60.94 L 2718,1605.15 c 15.87,-24.49 24.55,-52.96 25.02,-82.15 0.48,-29.19 -7.25,-57.93 -22.32,-82.94 l -173.45,-300.42 c -15.24,-24.56 -36.51,-44.83 -61.77,-58.88 -25.27,-14.05 -53.7,-21.43 -82.61,-21.43 l -348.58,5.06 c -29.61,1.01 -58.52,9.28 -84.18,24.1 -25.66,14.81 -47.28,35.71 -62.96,60.86 l -221.17,380.33 -148.98,265.8 z"
       fill="#10b981"
       id="path2" />
  </g>
  <defs
     id="defs2">
    <clipPath
       id="clip0_0_1">
      <rect
         width="3072"
         height="3072"
         fill="white"
         id="rect2" />
    </clipPath>
  </defs>
</svg>
