<svg width="3072" height="3072" viewBox="0 0 3072 3072" fill="none" xmlns="http://www.w3.org/2000/svg">
<rect width="3072" height="3072" fill="#F5F5F5"/>
<g clip-path="url(#clip0_0_1)">
<circle cx="1536" cy="1536" r="1195" stroke="white" stroke-width="170"/>
<path d="M1904.2 790.5C1874.58 791.506 1845.67 799.781 1820.01 814.596C1794.35 829.411 1772.73 850.31 1757.05 875.453L1538.6 1263.13L1381.24 1525.69L1162.85 1913.47C1147.17 1938.61 1125.55 1959.51 1099.89 1974.33C1074.23 1989.14 1045.32 1997.42 1015.71 1998.42L663.511 1997.21C634.589 1997.23 606.142 1989.86 580.858 1975.82C555.573 1961.78 534.288 1941.52 519.013 1916.96L342.209 1610.73C327.133 1585.7 319.395 1556.93 319.877 1527.72C320.359 1498.5 329.042 1470.01 344.935 1445.48L523.649 1146.15C539.28 1120.97 560.892 1100.04 586.561 1085.21C612.231 1070.39 641.165 1062.14 670.791 1061.2L1019.37 1056.14C1048.28 1056.13 1076.73 1063.5 1102.01 1077.54C1127.29 1091.58 1148.57 1111.84 1163.84 1136.4L1277.01 1332.43L1425.36 1066.99L1315.67 876.994C1301.74 851.463 1280.95 830.343 1255.63 816.03C1230.32 801.716 1201.5 794.781 1172.45 796.011L524.617 794.095C494.991 795.041 466.058 803.29 440.388 818.111C414.718 832.931 393.107 853.864 377.475 879.048L49.842 1444.15C30.8494 1467.79 19.7784 1496.82 18.1973 1527.1C16.6162 1557.39 24.6052 1587.41 41.0326 1612.9L370.165 2182.98C384.355 2208.38 405.377 2229.31 430.85 2243.37C456.322 2257.44 485.227 2264.09 514.286 2262.57L1167.91 2262.05C1197.52 2261.04 1226.43 2252.77 1252.09 2237.95C1277.75 2223.14 1299.38 2202.24 1315.05 2177.09L1537 1795.48L1685.98 1529.68L1907.15 1149.35C1922.83 1124.2 1944.45 1103.3 1970.11 1088.49C1995.77 1073.67 2024.68 1065.4 2054.29 1064.39L2402.87 1059.33C2431.78 1059.33 2460.21 1066.71 2485.48 1080.76C2510.74 1094.81 2532.01 1115.08 2547.25 1139.64L2720.7 1440.06C2735.77 1465.07 2743.5 1493.81 2743.02 1523C2742.55 1552.19 2733.87 1580.66 2718 1605.15L2542.81 1910.53C2527.17 1935.71 2505.56 1956.64 2479.89 1971.47C2454.22 1986.29 2425.29 1994.54 2395.66 1995.48L2047.09 2000.54C2018.19 2000.58 1989.76 1993.24 1964.49 1979.22C1939.21 1965.2 1917.94 1944.97 1902.67 1920.43L1788.99 1723.54L1643.14 1979.31L1756.33 2175.36C1770.45 2200.94 1791.47 2222.03 1817.01 2236.23C1842.54 2250.43 1871.54 2257.17 1900.72 2255.67L2553.94 2254.44C2583.58 2253.48 2612.53 2245.22 2638.22 2230.39C2663.91 2215.56 2685.54 2194.62 2701.19 2169.43L3028.81 1604.3C3043.11 1579.29 3050.82 1551.07 3051.21 1522.26C3051.61 1493.46 3044.68 1465.03 3031.08 1439.64L2701.8 869.324C2687.67 843.761 2666.63 822.69 2641.09 808.519C2615.55 794.347 2586.54 787.648 2557.37 789.186L1904.2 790.5Z" fill="#B91C1C"/>
<path fill-rule="evenodd" clip-rule="evenodd" d="M1536 1797.2V1267.47L1538.6 1263.13L1757.05 875.453C1772.73 850.31 1794.35 829.411 1820.01 814.596C1845.67 799.781 1874.58 791.506 1904.2 790.5L2557.37 789.186C2586.54 787.648 2615.55 794.347 2641.09 808.519C2666.63 822.69 2687.67 843.761 2701.8 869.324L3031.08 1439.64C3044.68 1465.03 3051.61 1493.46 3051.21 1522.26C3050.82 1551.07 3043.11 1579.29 3028.81 1604.3L2701.19 2169.43C2685.54 2194.62 2663.91 2215.56 2638.22 2230.39C2612.53 2245.22 2583.58 2253.48 2553.94 2254.44L1900.72 2255.67C1871.54 2257.17 1842.54 2250.43 1817.01 2236.23C1791.47 2222.03 1770.45 2200.94 1756.33 2175.36L1643.14 1979.31L1788.99 1723.54L1902.67 1920.43C1917.94 1944.97 1939.21 1965.2 1964.49 1979.22C1989.76 1993.24 2018.19 2000.58 2047.09 2000.54L2395.66 1995.48C2425.29 1994.54 2454.22 1986.29 2479.89 1971.47C2505.56 1956.64 2527.17 1935.71 2542.81 1910.53L2718 1605.15C2733.87 1580.66 2742.55 1552.19 2743.02 1523C2743.5 1493.81 2735.77 1465.07 2720.7 1440.06L2547.25 1139.64C2532.01 1115.08 2510.74 1094.81 2485.48 1080.76C2460.21 1066.71 2431.78 1059.33 2402.87 1059.33L2054.29 1064.39C2024.68 1065.4 1995.77 1073.67 1970.11 1088.49C1944.45 1103.3 1922.83 1124.2 1907.15 1149.35L1685.98 1529.68L1537 1795.48L1536 1797.2Z" fill="#10B981"/>
</g>
<defs>
<clipPath id="clip0_0_1">
<rect width="3072" height="3072" fill="white"/>
</clipPath>
</defs>
</svg>
